<svg width="157" height="44" viewBox="0 0 157 44" fill="none" xmlns="http://www.w3.org/2000/svg">
    <path d="M18.189 19.085C15.855 20.5385 13.1834 21.3604 10.436 21.47C4.174 21.47 0 16.997 0 10.735C0 4.47299 4.174 0 10.436 0C12.8369 0.00393041 15.1972 0.619639 17.294 1.789L17.594 6.858H17.15C15.957 4.472 14.019 0.595978 10.441 0.595978C7.16101 0.595978 5.07401 5.06898 5.07401 10.734C5.07401 16.399 7.16101 20.872 10.441 20.872C11.4659 20.8808 12.4813 20.6765 13.423 20.272V14.16C13.423 12.221 13.423 12.221 11.634 12.221V11.621H19.983V12.221C18.194 12.221 18.194 12.221 18.194 14.16L18.189 19.085Z" fill="#DCA73A" />
    <path d="M35.4838 0.298981V0.898987C33.6948 0.898987 33.6948 0.899006 33.6948 2.83701V18.637C33.6948 20.575 33.6948 20.575 35.4838 20.575V21.175H27.1348V20.575C28.9248 20.575 28.9247 20.575 28.9247 18.637V2.83701C28.9247 0.899006 28.9248 0.898987 27.1348 0.898987V0.298981H35.4838Z" fill="#DCA73A" />
    <path d="M51.5854 0.298981V0.898987C49.7964 0.898987 49.7964 0.899006 49.7964 2.83701V20.579H53.0764C56.0584 20.579 57.6984 18.522 58.8904 15.51H59.3374L58.7374 21.175H43.2344V20.575C45.0244 20.575 45.0244 20.575 45.0244 18.637V2.83701C45.0244 0.899006 45.0244 0.898987 43.2344 0.898987V0.298981H51.5854Z" fill="#DCA73A" />
    <path d="M75.4372 0.298981C79.9102 0.298981 82.2952 2.38598 82.2952 5.36798C82.2952 7.75298 80.5062 9.542 78.1212 10.198V10.258C81.8482 11.182 83.1902 13.358 83.1902 15.658C83.1902 18.938 80.8052 21.174 76.3322 21.174H66.4922V20.574C68.2812 20.574 68.2812 20.574 68.2812 18.636V2.836C68.2812 0.897999 68.2812 0.89798 66.4922 0.89798V0.298004L75.4372 0.298981ZM73.6482 10.139C76.3322 10.139 77.3752 8.35 77.3752 5.517C77.3752 2.982 76.3312 0.894989 74.5422 0.894989H73.0512V10.139H73.6482ZM73.0482 10.739V20.579H75.1422C77.5272 20.579 78.2732 18.194 78.2732 15.51C78.2732 12.826 76.9312 10.739 74.2482 10.739H73.0482Z" fill="#DCA73A" />
    <path d="M97.2016 10.586H98.9936C99.4735 10.6307 99.9574 10.5757 100.415 10.4243C100.872 10.273 101.294 10.0286 101.652 9.70654C102.011 9.38447 102.299 8.99169 102.498 8.55292C102.697 8.11415 102.804 7.63887 102.811 7.15698H103.258V14.463H102.811C102.543 12.077 101.082 11.183 98.9936 11.183H97.2046V20.576H100.485C103.467 20.576 105.107 18.519 106.3 15.507H106.747L106.147 21.172H90.6416V20.572C92.4306 20.572 92.4306 20.572 92.4306 18.634V2.83398C92.4306 0.895984 92.4306 0.895996 90.6416 0.895996V0.29599H105.85L106.297 5.96201H105.85C104.657 2.95001 103.166 0.893005 100.184 0.893005H97.2016V10.586Z" fill="#DCA73A" />
    <path d="M124.847 11.093C127.56 11.063 129.947 15.715 130.9 17.293C131.56 18.6489 132.595 19.7872 133.882 20.573V21.173H127.62C123.446 16.999 123.744 11.631 121.657 11.631H121.057V18.639C121.057 20.577 121.057 20.577 122.846 20.577V21.177H114.497V20.577C116.286 20.577 116.286 20.577 116.286 18.639V2.83899C116.286 0.900989 116.286 0.901001 114.497 0.901001V0.300995H124.039C128.512 0.300995 130.897 2.68601 130.897 5.66901C130.897 7.90501 129.406 10.35 124.844 11.036L124.847 11.093ZM122.253 11.033C125.235 11.033 125.98 8.34899 125.98 5.96399C125.98 3.87599 125.235 0.894989 122.849 0.894989H121.06V11.033H122.253Z" fill="#DCA73A" />
    <path d="M145.207 0.894989H144.163C141.628 0.894989 140.286 2.95199 139.094 5.96399H138.647L139.094 0.298004H156.094L156.541 5.96399H156.094C154.901 2.95199 153.56 0.894989 151.025 0.894989H149.978V18.637C149.978 20.575 149.978 20.575 151.767 20.575V21.175H143.418V20.575C145.207 20.575 145.207 20.575 145.207 18.637V0.894989Z" fill="#DCA73A" />
    <path d="M32.6963 43.726V33.481H34.0513V37.688H39.3763V33.481H40.7313V43.726H39.3763V38.897H34.0513V43.726H32.6963Z" fill="#DCA73A" />
    <path d="M49.7331 38.737C49.6478 37.2774 50.1399 35.8429 51.1031 34.743C51.557 34.2662 52.1069 33.8911 52.7164 33.6423C53.3259 33.3936 53.9812 33.2769 54.6391 33.3C55.5377 33.2871 56.4226 33.5213 57.1971 33.977C57.9499 34.4218 58.5543 35.0794 58.9341 35.867C59.3443 36.7248 59.5497 37.6662 59.5341 38.617C59.5506 39.5832 59.3349 40.5394 58.9051 41.405C58.5153 42.1946 57.8922 42.8454 57.1201 43.269C56.3584 43.689 55.5019 43.9069 54.6321 43.902C53.7215 43.9163 52.8252 43.6737 52.0461 43.202C51.2974 42.7475 50.6975 42.0844 50.3201 41.294C49.9312 40.4978 49.7304 39.623 49.7331 38.737ZM51.1331 38.758C51.0742 39.8234 51.4329 40.8698 52.1331 41.675C52.458 42.0131 52.848 42.2819 53.2796 42.4652C53.7112 42.6485 54.1754 42.7425 54.6443 42.7416C55.1132 42.7407 55.577 42.6448 56.0078 42.4597C56.4387 42.2747 56.8276 42.0044 57.1511 41.665C57.8579 40.8102 58.2117 39.7178 58.1401 38.611C58.157 37.8611 58.0127 37.1163 57.7171 36.427C57.4585 35.8319 57.0277 35.328 56.4801 34.98C55.9329 34.6365 55.2981 34.4584 54.6521 34.467C54.1944 34.46 53.7398 34.5438 53.3146 34.7136C52.8895 34.8833 52.5022 35.1357 52.1751 35.456C51.7876 35.9076 51.4953 36.4329 51.3159 37.0004C51.1365 37.5678 51.0737 38.1656 51.1311 38.758H51.1331Z" fill="#DCA73A" />
    <path d="M71.04 43.726V34.69H67.665V33.481H75.7851V34.69H72.3961V43.726H71.04Z" fill="#DCA73A" />
    <path d="M84.3604 43.726V33.481H91.7684V34.69H85.7164V37.827H91.3844V39.027H85.7164V42.514H92.0063V43.723L84.3604 43.726Z" fill="#DCA73A" />
    <path d="M100.979 43.726V33.481H102.335V42.517H107.38V43.726H100.979Z" fill="#DCA73A" />
    <path d="M115.689 40.435L116.968 40.323C117.007 40.771 117.152 41.2032 117.391 41.584C117.651 41.9443 118.009 42.2221 118.422 42.384C118.92 42.5916 119.455 42.6937 119.994 42.684C120.461 42.6926 120.926 42.6143 121.364 42.453C121.714 42.3328 122.022 42.1132 122.248 41.821C122.437 41.5674 122.539 41.2599 122.538 40.944C122.544 40.6395 122.445 40.3424 122.258 40.102C122.011 39.8221 121.692 39.6147 121.335 39.502C120.737 39.3034 120.128 39.1365 119.511 39.002C118.83 38.8633 118.167 38.6489 117.533 38.363C117.091 38.1475 116.713 37.8183 116.439 37.409C116.199 37.0276 116.074 36.5848 116.079 36.134C116.079 35.6177 116.232 35.1129 116.519 34.684C116.833 34.2185 117.282 33.8609 117.805 33.66C118.403 33.421 119.042 33.3024 119.685 33.311C120.373 33.2976 121.056 33.4224 121.694 33.678C122.239 33.8944 122.706 34.271 123.032 34.758C123.345 35.2393 123.518 35.798 123.532 36.372L122.232 36.472C122.218 36.1924 122.148 35.9185 122.026 35.6664C121.904 35.4143 121.734 35.1891 121.523 35.004C121.004 34.6364 120.373 34.4597 119.737 34.504C119.107 34.452 118.476 34.6106 117.945 34.955C117.773 35.0791 117.632 35.2422 117.534 35.4311C117.436 35.62 117.384 35.8293 117.382 36.042C117.378 36.2136 117.412 36.384 117.481 36.5412C117.55 36.6983 117.653 36.8382 117.782 36.951C118.407 37.33 119.103 37.5783 119.826 37.681C120.6 37.8326 121.359 38.0514 122.094 38.335C122.622 38.5549 123.079 38.9165 123.414 39.38C123.702 39.8109 123.85 40.3192 123.84 40.837C123.84 41.3855 123.677 41.9217 123.372 42.378C123.043 42.8755 122.575 43.2663 122.027 43.503C121.406 43.7778 120.733 43.9143 120.053 43.903C119.257 43.9265 118.465 43.7884 117.723 43.497C117.121 43.2471 116.607 42.8225 116.248 42.278C115.891 41.7291 115.697 41.0899 115.689 40.435Z" fill="#DCA73A" />
</svg>