<?xml version="1.0" encoding="utf-8"?>
<svg version="1.1" id="Layer_1" xmlns="http://www.w3.org/2000/svg" xmlns:xlink="http://www.w3.org/1999/xlink" x="0px" y="0px" viewBox="0 0 122.88 77.88" style="enable-background:new 0 0 122.88 77.88" xml:space="preserve">
    <g>
        <path d="M26.2,24.16h11.33c1.89,0,3.34,0.5,4.35,1.48c1.01,0.99,1.52,2.21,1.52,3.67c0,1.22-0.36,2.28-1.08,3.15 c-0.48,0.59-1.19,1.05-2.11,1.39c1.41,0.36,2.44,0.97,3.1,1.84c0.66,0.87,0.99,1.97,0.99,3.28c0,1.07-0.24,2.04-0.71,2.9 c-0.47,0.86-1.12,1.53-1.94,2.03c-0.51,0.31-1.28,0.53-2.3,0.67c-1.36,0.19-2.27,0.28-2.71,0.28H26.2V24.16L26.2,24.16z M16.45,0 h89.99c4.52,0,8.63,1.85,11.61,4.83c2.98,2.98,4.84,7.1,4.84,11.61v44.99c0,4.51-1.86,8.62-4.84,11.61 c-2.98,2.98-7.1,4.84-11.61,4.84H16.45c-4.51,0-8.63-1.85-11.61-4.84C1.85,70.06,0,65.95,0,61.43V16.45 c0-4.52,1.85-8.64,4.83-11.62C7.81,1.85,11.92,0,16.45,0L16.45,0z M3.54,55.33c0.61,2.31,1.83,4.37,3.48,6.01 c2.42,2.42,5.76,3.92,9.43,3.92h89.99c0.15,0,0.29,0,0.44-0.01l0.91-0.06c3.13-0.32,5.96-1.73,8.08-3.85 c1.64-1.64,2.86-3.71,3.48-6.01V16.45c0-3.54-1.45-6.77-3.8-9.11c-2.34-2.34-5.56-3.8-9.11-3.8H16.45c-3.55,0-6.77,1.45-9.11,3.79 c-2.34,2.34-3.79,5.57-3.79,9.11V55.33L3.54,55.33z M32.3,32.29h2.64c0.94,0,1.6-0.17,1.97-0.52c0.37-0.35,0.56-0.84,0.56-1.49 c0-0.6-0.19-1.07-0.56-1.41c-0.37-0.34-1.02-0.51-1.93-0.51H32.3V32.29L32.3,32.29z M32.3,40.42h3.09c1.04,0,1.78-0.2,2.21-0.59 c0.43-0.39,0.64-0.91,0.64-1.57c0-0.61-0.21-1.1-0.63-1.47c-0.42-0.37-1.17-0.56-2.23-0.56H32.3V40.42L32.3,40.42z M52.06,34.72 l-5.2-0.58c0.2-0.96,0.48-1.72,0.85-2.27c0.37-0.55,0.9-1.03,1.6-1.44c0.5-0.29,1.18-0.52,2.05-0.68c0.87-0.16,1.81-0.24,2.83-0.24 c1.63,0,2.93,0.1,3.92,0.29c0.98,0.19,1.81,0.6,2.47,1.21c0.47,0.42,0.83,1.03,1.09,1.8c0.27,0.78,0.4,1.52,0.4,2.23v6.63 c0,0.71,0.04,1.26,0.13,1.66c0.08,0.4,0.27,0.91,0.55,1.53h-5.09c-0.21-0.39-0.34-0.67-0.4-0.88c-0.06-0.2-0.12-0.52-0.19-0.94 c-0.71,0.72-1.42,1.24-2.12,1.55c-0.96,0.41-2.08,0.62-3.35,0.62c-1.69,0-2.98-0.41-3.85-1.25c-0.88-0.83-1.32-1.86-1.32-3.07 c0-1.14,0.31-2.08,0.95-2.82c0.63-0.74,1.8-1.29,3.5-1.64c2.04-0.43,3.36-0.74,3.97-0.92c0.61-0.17,1.25-0.4,1.92-0.68 c0-0.71-0.14-1.2-0.41-1.48c-0.27-0.28-0.76-0.42-1.45-0.42c-0.89,0-1.55,0.15-2,0.45C52.56,33.62,52.28,34.06,52.06,34.72 L52.06,34.72z M56.77,37.73c-0.75,0.28-1.53,0.54-2.34,0.76c-1.1,0.31-1.8,0.62-2.1,0.93c-0.31,0.31-0.46,0.67-0.46,1.07 c0,0.46,0.15,0.83,0.45,1.12c0.3,0.29,0.74,0.43,1.32,0.43c0.61,0,1.17-0.16,1.7-0.47c0.52-0.31,0.89-0.69,1.11-1.15 c0.22-0.45,0.33-1.04,0.33-1.76V37.73L56.77,37.73z M75.91,39l5.17,0.61c-0.29,1.14-0.75,2.13-1.4,2.97 c-0.65,0.83-1.48,1.48-2.49,1.95c-1.01,0.46-2.29,0.69-3.85,0.69c-1.51,0-2.76-0.15-3.76-0.44c-1-0.3-1.86-0.78-2.58-1.45 c-0.72-0.66-1.29-1.44-1.7-2.34c-0.41-0.9-0.62-2.08-0.62-3.56c0-1.54,0.25-2.83,0.75-3.86c0.36-0.76,0.87-1.43,1.5-2.03 c0.63-0.6,1.28-1.05,1.95-1.34c1.06-0.46,2.42-0.69,4.07-0.69c2.32,0,4.08,0.44,5.3,1.31c1.22,0.88,2.07,2.15,2.56,3.84l-5.11,0.72 c-0.16-0.64-0.45-1.12-0.88-1.45c-0.42-0.32-0.99-0.49-1.71-0.49c-0.9,0-1.63,0.34-2.19,1.02c-0.56,0.68-0.83,1.72-0.83,3.1 c0,1.23,0.28,2.17,0.83,2.81c0.55,0.64,1.25,0.96,2.11,0.96c0.71,0,1.31-0.19,1.8-0.57C75.31,40.38,75.67,39.79,75.91,39L75.91,39z M83.1,24.16h5.55v10.66l4.06-4.97h6.69l-5.09,5.25l5.39,9.76h-6.12l-2.88-6.02l-2.05,2.12v3.9H83.1V24.16L83.1,24.16z" />
    </g>
</svg>