<?xml version="1.0" encoding="UTF-8"?>
<svg width="20px" height="20px" viewBox="0 0 20 20" version="1.1" xmlns="http://www.w3.org/2000/svg" xmlns:xlink="http://www.w3.org/1999/xlink">
    <!-- Generator: Sketch 53 (72520) - https://sketchapp.com -->
    <title>booking-inquiry</title>
    <desc>Created with Sketch.</desc>
    <g id="booking-inquiry" stroke="none" stroke-width="1" fill="none" fill-rule="evenodd" stroke-linejoin="round">
        <g id="calendar-question" transform="translate(1.000000, 1.000000)" stroke="#D0CDD4" stroke-width="1.2">
            <circle id="Oval" stroke-linecap="round" cx="12.9375" cy="12.9375" r="4.5"></circle>
            <path d="M11.53125,12.09375 C11.53125,11.3170996 12.1608496,10.6875 12.9375,10.6875 C13.7141504,10.6875 14.34375,11.3170996 14.34375,12.09375 C14.34375,12.8704004 13.7141504,13.5 12.9375,13.5" id="Path" stroke-linecap="round"></path>
            <path d="M12.9375,15.1875 C12.7821699,15.1875 12.65625,15.3134199 12.65625,15.46875 C12.65625,15.6240801 12.7821699,15.75 12.9375,15.75 C13.0928301,15.75 13.21875,15.6240801 13.21875,15.46875 C13.21875,15.3134199 13.0928301,15.1875 12.9375,15.1875 L12.9375,15.1875" id="Path" stroke-linecap="round"></path>
            <path d="M6.1875,12.9375 L1.6875,12.9375 C1.06617966,12.9375 0.5625,12.4338203 0.5625,11.8125 L0.5625,2.82375 C0.5625,2.20242966 1.06617966,1.69875 1.6875,1.69875 L11.8125,1.69875 C12.4338203,1.69875 12.9375,2.20242966 12.9375,2.82375 L12.9375,6.1875" id="Path" stroke-linecap="round"></path>
            <path d="M0.5625,5.0625 L12.9375,5.0625" id="Path"></path>
            <path d="M3.93225,2.8125 L3.93225,0.5625" id="Path" stroke-linecap="round"></path>
            <path d="M9.55725,2.8125 L9.55725,0.5625" id="Path" stroke-linecap="round"></path>
        </g>
    </g>
</svg>
