<?xml version="1.0" encoding="UTF-8"?>
<svg width="20px" height="20px" viewBox="0 0 20 20" version="1.1" xmlns="http://www.w3.org/2000/svg" xmlns:xlink="http://www.w3.org/1999/xlink">
    <!-- Generator: Sketch 53 (72520) - https://sketchapp.com -->
    <title>booking-request</title>
    <desc>Created with Sketch.</desc>
    <g id="booking-request" stroke="none" stroke-width="1" fill="none" fill-rule="evenodd" stroke-linecap="round" stroke-linejoin="round">
        <g id="calendar-warning" transform="translate(1.000000, 1.000000)" stroke="#D0CDD4" stroke-width="1.2">
            <path d="M6.1875,12.9375 L1.6875,12.9375 C1.06617966,12.9375 0.5625,12.4338203 0.5625,11.8125 L0.5625,2.8125 C0.5625,2.19117966 1.06617966,1.6875 1.6875,1.6875 L11.8125,1.6875 C12.4338203,1.6875 12.9375,2.19117966 12.9375,2.8125 L12.9375,6.1875" id="Path"></path>
            <path d="M0.5625,5.0625 L12.9375,5.0625" id="Path"></path>
            <path d="M3.9375,2.8125 L3.9375,0.5625" id="Path"></path>
            <path d="M9.5625,2.8125 L9.5625,0.5625" id="Path"></path>
            <path d="M12.9375,14.625 C12.7821699,14.625 12.65625,14.7509199 12.65625,14.90625 C12.65625,15.0615801 12.7821699,15.1875 12.9375,15.1875 C13.0928301,15.1875 13.21875,15.0615801 13.21875,14.90625 C13.21875,14.7509199 13.0928301,14.625 12.9375,14.625 L12.9375,14.625" id="Path"></path>
            <path d="M12.9375,12.9375 L12.9375,11.25" id="Path"></path>
            <path d="M17.29725,15.51225 C17.5033597,15.9247012 17.4812333,16.4144612 17.2387718,16.8066469 C16.9963103,17.1988326 16.5680826,17.437528 16.107,17.4375 L9.768,17.4375 C9.30691736,17.437528 8.87868971,17.1988326 8.6362282,16.8066469 C8.3937667,16.4144612 8.37164034,15.9247012 8.57775,15.51225 L11.74725,9.17325 C11.9725407,8.72226184 12.4333708,8.43733825 12.9375,8.43733825 C13.4416292,8.43733825 13.9024593,8.72226184 14.12775,9.17325 L17.29725,15.51225 Z" id="Path"></path>
        </g>
    </g>
</svg>
