<?xml version="1.0" encoding="UTF-8"?>
<svg width="20px" height="20px" viewBox="0 0 20 20" version="1.1" xmlns="http://www.w3.org/2000/svg" xmlns:xlink="http://www.w3.org/1999/xlink">
    <!-- Generator: Sketch 52.6 (67491) - http://www.bohemiancoding.com/sketch -->
    <title>scope</title>
    <desc>Created with Sketch.</desc>
    <g id="scope" stroke="none" stroke-width="1" fill="none" fill-rule="evenodd" stroke-linecap="round" stroke-linejoin="round">
        <path d="M8.35714286,9.82222222 L8.35714286,17.4311111 C8.35714286,17.7155556 8.57142857,17.9288889 8.85714286,18 C8.85714286,18 8.85714286,18 8.85714286,18 L11,18 C11.2857143,18 11.5714286,17.7866667 11.5714286,17.4311111 L11.5714286,9.82222222 C15.0714286,9.11111111 17.7142857,6.12444444 18,2.56888889 C18,2.28444444 17.7857143,2 17.5,2 C17.5,2 17.5,2 17.5,2 L2.5,2 C2.21428571,2 2,2.21333333 2,2.56888889 C2,2.56888889 2,2.56888889 2,2.56888889 C2.21428571,6.12444444 4.85714286,9.11111111 8.35714286,9.82222222 Z" id="Path" stroke="#D0CDD4" stroke-width="1.2"></path>
    </g>
</svg>
